<svg width="19" height="16" viewBox="0 0 19 16" fill="none" xmlns="http://www.w3.org/2000/svg">
<path d="M1.2657 15.907C0.495365 15.907 0.0143065 15.0726 0.400271 14.4059L8.4002 0.587876C8.78536 -0.0774087 9.74589 -0.0774096 10.1311 0.587875L18.131 14.4059C18.5169 15.0726 18.0359 15.907 17.2656 15.907H1.2657ZM9.26562 13.2521C9.51636 13.2521 9.72653 13.1673 9.89615 12.9977C10.0658 12.8281 10.1506 12.6179 10.1506 12.3672C10.1506 12.1165 10.0658 11.9063 9.89615 11.7367C9.72653 11.5671 9.51636 11.4823 9.26562 11.4823C9.01489 11.4823 8.80472 11.5671 8.6351 11.7367C8.46549 11.9063 8.38068 12.1165 8.38068 12.3672C8.38068 12.6179 8.46549 12.8281 8.6351 12.9977C8.80472 13.1673 9.01489 13.2521 9.26562 13.2521ZM8.38068 9.71237C8.38068 10.2011 8.77688 10.5973 9.26562 10.5973C9.75436 10.5973 10.1506 10.2011 10.1506 9.71237V7.05754C10.1506 6.5688 9.75436 6.17259 9.26562 6.17259C8.77688 6.17259 8.38068 6.5688 8.38068 7.05754V9.71237Z" fill="#B1B1B1"/>
</svg>
