<svg width="21" height="17" viewBox="0 0 21 17" fill="none" xmlns="http://www.w3.org/2000/svg">
<path d="M10.4125 16.8333L14.3938 6.83332H16.2312L20.2125 16.8333H18.375L17.4344 14.2917H13.1906L12.25 16.8333H10.4125ZM3.5 14.3333L2.275 13.1667L6.69375 8.95832C6.18333 8.47221 5.72031 7.91666 5.30469 7.29166C4.88906 6.66666 4.50625 5.95832 4.15625 5.16666H5.99375C6.28542 5.70832 6.57708 6.18055 6.86875 6.58332C7.16042 6.9861 7.51042 7.38888 7.91875 7.79166C8.4 7.33332 8.89948 6.69096 9.41719 5.86457C9.9349 5.03818 10.325 4.24999 10.5875 3.49999H0.875V1.83332H7V0.166656H8.75V1.83332H14.875V3.49999H12.3375C12.0312 4.49999 11.5719 5.52777 10.9594 6.58332C10.3469 7.63888 9.74167 8.44444 9.14375 8.99999L11.2437 11.0417L10.5875 12.75L7.91875 10.1458L3.5 14.3333ZM13.7375 12.8333H16.8875L15.3125 8.58332L13.7375 12.8333Z" fill="#B1B1B1"/>
</svg>
