<svg width="16" height="17" viewBox="0 0 16 17" fill="none" xmlns="http://www.w3.org/2000/svg">
<path d="M13.9501 9.24446C13.9834 9.00696 14.0001 8.76155 14.0001 8.5003C14.0001 8.24697 13.9834 7.99363 13.9418 7.75613L15.6334 6.5053C15.7834 6.39447 15.8251 6.18072 15.7334 6.02238L14.1334 3.39405C14.0334 3.21988 13.8251 3.16447 13.6418 3.21988L11.6501 3.97988C11.2334 3.67905 10.7918 3.42572 10.3001 3.23572L10.0001 1.22488C9.96676 1.03488 9.8001 0.900299 9.6001 0.900299H6.4001C6.2001 0.900299 6.04176 1.03488 6.00843 1.22488L5.70843 3.23572C5.21676 3.42572 4.76676 3.68697 4.35843 3.97988L2.36676 3.21988C2.18343 3.15655 1.9751 3.21988 1.8751 3.39405L0.28343 6.02238C0.18343 6.18863 0.216763 6.39447 0.38343 6.5053L2.0751 7.75613C2.03343 7.99363 2.0001 8.25488 2.0001 8.5003C2.0001 8.74572 2.01676 9.00696 2.05843 9.24446L0.366763 10.4953C0.216763 10.6061 0.175097 10.8199 0.266763 10.9782L1.86676 13.6066C1.96676 13.7807 2.1751 13.8361 2.35843 13.7807L4.3501 13.0207C4.76676 13.3215 5.20843 13.5749 5.7001 13.7649L6.0001 15.7757C6.04176 15.9657 6.2001 16.1003 6.4001 16.1003H9.6001C9.8001 16.1003 9.96676 15.9657 9.99176 15.7757L10.2918 13.7649C10.7834 13.5749 11.2334 13.3215 11.6418 13.0207L13.6334 13.7807C13.8168 13.844 14.0251 13.7807 14.1251 13.6066L15.7251 10.9782C15.8251 10.804 15.7834 10.6061 15.6251 10.4953L13.9501 9.24446ZM8.0001 11.3503C6.3501 11.3503 5.0001 10.0678 5.0001 8.5003C5.0001 6.9328 6.3501 5.6503 8.0001 5.6503C9.6501 5.6503 11.0001 6.9328 11.0001 8.5003C11.0001 10.0678 9.6501 11.3503 8.0001 11.3503Z" fill="#40B2B2"/>
</svg>
